<svg xmlns="http://www.w3.org/2000/svg" viewBox="0 0 900 300" width="900" height="300">
  <defs>
    <!-- Scanline pattern -->
    <pattern id="sl" x="0" y="30" width="900" height="4" patternUnits="userSpaceOnUse">
      <rect x="0" y="0" width="900" height="2" fill="#000000" opacity="0.13"/>
    </pattern>
    <!-- CRT vignette -->
    <radialGradient id="vig" cx="50%" cy="50%" r="70%">
      <stop offset="0%"   stop-color="#000" stop-opacity="0"/>
      <stop offset="100%" stop-color="#000" stop-opacity="0.52"/>
    </radialGradient>
  </defs>

  <!-- Main background -->
  <rect width="900" height="300" fill="#080808"/>

  <!-- Matrix character columns (right side only, x >= 630) -->
  <text font-family="Courier New, monospace" font-size="13" fill="#00ff41">
    <!-- col x=635 -->
    <tspan x="635" y="44"  opacity="0.18">1</tspan>
    <tspan x="635" y="62"  opacity="0.15">0</tspan>
    <tspan x="635" y="80"  opacity="0.12">$</tspan>
    <tspan x="635" y="98"  opacity="0.10">|</tspan>
    <tspan x="635" y="116" opacity="0.08">1</tspan>
    <tspan x="635" y="134" opacity="0.06">0</tspan>
    <tspan x="635" y="152" opacity="0.05">/</tspan>
    <tspan x="635" y="170" opacity="0.04">^</tspan>
    <tspan x="635" y="188" opacity="0.03">*</tspan>
    <tspan x="635" y="206" opacity="0.02">!</tspan>
    <tspan x="635" y="224" opacity="0.01">@</tspan>
    <tspan x="635" y="242" opacity="0.01">1</tspan>
    <!-- col x=662 -->
    <tspan x="662" y="55"  opacity="0.14">0</tspan>
    <tspan x="662" y="73"  opacity="0.17">1</tspan>
    <tspan x="662" y="91"  opacity="0.14">/</tspan>
    <tspan x="662" y="109" opacity="0.11">\</tspan>
    <tspan x="662" y="127" opacity="0.09">0</tspan>
    <tspan x="662" y="145" opacity="0.07">1</tspan>
    <tspan x="662" y="163" opacity="0.05">$</tspan>
    <tspan x="662" y="181" opacity="0.04">|</tspan>
    <tspan x="662" y="199" opacity="0.03">^</tspan>
    <tspan x="662" y="217" opacity="0.02">0</tspan>
    <tspan x="662" y="235" opacity="0.01">1</tspan>
    <!-- col x=690 -->
    <tspan x="690" y="40"  opacity="0.20">$</tspan>
    <tspan x="690" y="58"  opacity="0.16">0</tspan>
    <tspan x="690" y="76"  opacity="0.13">1</tspan>
    <tspan x="690" y="94"  opacity="0.10">!</tspan>
    <tspan x="690" y="112" opacity="0.08">@</tspan>
    <tspan x="690" y="130" opacity="0.06">#</tspan>
    <tspan x="690" y="148" opacity="0.05">1</tspan>
    <tspan x="690" y="166" opacity="0.04">0</tspan>
    <tspan x="690" y="184" opacity="0.03">/</tspan>
    <tspan x="690" y="202" opacity="0.02">^</tspan>
    <tspan x="690" y="220" opacity="0.01">*</tspan>
    <!-- col x=720 -->
    <tspan x="720" y="50"  opacity="0.16">1</tspan>
    <tspan x="720" y="68"  opacity="0.13">0</tspan>
    <tspan x="720" y="86"  opacity="0.10">^</tspan>
    <tspan x="720" y="104" opacity="0.13">$</tspan>
    <tspan x="720" y="122" opacity="0.10">|</tspan>
    <tspan x="720" y="140" opacity="0.08">\</tspan>
    <tspan x="720" y="158" opacity="0.06">1</tspan>
    <tspan x="720" y="176" opacity="0.05">0</tspan>
    <tspan x="720" y="194" opacity="0.04">!</tspan>
    <tspan x="720" y="212" opacity="0.03">@</tspan>
    <tspan x="720" y="230" opacity="0.02">1</tspan>
    <tspan x="720" y="248" opacity="0.01">0</tspan>
    <!-- col x=750 -->
    <tspan x="750" y="44"  opacity="0.19">0</tspan>
    <tspan x="750" y="62"  opacity="0.15">1</tspan>
    <tspan x="750" y="80"  opacity="0.12">!</tspan>
    <tspan x="750" y="98"  opacity="0.09">$</tspan>
    <tspan x="750" y="116" opacity="0.07">0</tspan>
    <tspan x="750" y="134" opacity="0.06">1</tspan>
    <tspan x="750" y="152" opacity="0.04">/</tspan>
    <tspan x="750" y="170" opacity="0.03">|</tspan>
    <tspan x="750" y="188" opacity="0.02">^</tspan>
    <tspan x="750" y="206" opacity="0.01">*</tspan>
    <!-- col x=778 -->
    <tspan x="778" y="58"  opacity="0.22">1</tspan>
    <tspan x="778" y="76"  opacity="0.18">0</tspan>
    <tspan x="778" y="94"  opacity="0.14">$</tspan>
    <tspan x="778" y="112" opacity="0.11">!</tspan>
    <tspan x="778" y="130" opacity="0.09">1</tspan>
    <tspan x="778" y="148" opacity="0.07">0</tspan>
    <tspan x="778" y="166" opacity="0.06">\</tspan>
    <tspan x="778" y="184" opacity="0.04">^</tspan>
    <tspan x="778" y="202" opacity="0.03">*</tspan>
    <tspan x="778" y="220" opacity="0.02">@</tspan>
    <tspan x="778" y="238" opacity="0.01">1</tspan>
    <!-- col x=808 -->
    <tspan x="808" y="46"  opacity="0.20">0</tspan>
    <tspan x="808" y="64"  opacity="0.16">/</tspan>
    <tspan x="808" y="82"  opacity="0.13">1</tspan>
    <tspan x="808" y="100" opacity="0.10">$</tspan>
    <tspan x="808" y="118" opacity="0.08">0</tspan>
    <tspan x="808" y="136" opacity="0.06">!</tspan>
    <tspan x="808" y="154" opacity="0.05">@</tspan>
    <tspan x="808" y="172" opacity="0.04">1</tspan>
    <tspan x="808" y="190" opacity="0.03">^</tspan>
    <tspan x="808" y="208" opacity="0.02">0</tspan>
    <tspan x="808" y="226" opacity="0.01">*</tspan>
    <!-- col x=836 -->
    <tspan x="836" y="52"  opacity="0.18">1</tspan>
    <tspan x="836" y="70"  opacity="0.14">0</tspan>
    <tspan x="836" y="88"  opacity="0.11">!</tspan>
    <tspan x="836" y="106" opacity="0.15">$</tspan>
    <tspan x="836" y="124" opacity="0.12">|</tspan>
    <tspan x="836" y="142" opacity="0.09">\</tspan>
    <tspan x="836" y="160" opacity="0.07">^</tspan>
    <tspan x="836" y="178" opacity="0.05">1</tspan>
    <tspan x="836" y="196" opacity="0.04">0</tspan>
    <tspan x="836" y="214" opacity="0.02">@</tspan>
    <tspan x="836" y="232" opacity="0.01">!</tspan>
    <!-- col x=864 -->
    <tspan x="864" y="40"  opacity="0.22">0</tspan>
    <tspan x="864" y="58"  opacity="0.18">1</tspan>
    <tspan x="864" y="76"  opacity="0.14">$</tspan>
    <tspan x="864" y="94"  opacity="0.11">/</tspan>
    <tspan x="864" y="112" opacity="0.09">!</tspan>
    <tspan x="864" y="130" opacity="0.07">0</tspan>
    <tspan x="864" y="148" opacity="0.06">1</tspan>
    <tspan x="864" y="166" opacity="0.04">^</tspan>
    <tspan x="864" y="184" opacity="0.03">*</tspan>
    <tspan x="864" y="202" opacity="0.02">@</tspan>
    <tspan x="864" y="220" opacity="0.01">0</tspan>
    <!-- col x=888 -->
    <tspan x="888" y="48"  opacity="0.20">1</tspan>
    <tspan x="888" y="66"  opacity="0.16">0</tspan>
    <tspan x="888" y="84"  opacity="0.12">$</tspan>
    <tspan x="888" y="102" opacity="0.09">\</tspan>
    <tspan x="888" y="120" opacity="0.07">!</tspan>
    <tspan x="888" y="138" opacity="0.06">|</tspan>
    <tspan x="888" y="156" opacity="0.04">1</tspan>
    <tspan x="888" y="174" opacity="0.03">0</tspan>
    <tspan x="888" y="192" opacity="0.02">^</tspan>
    <tspan x="888" y="210" opacity="0.01">@</tspan>
  </text>

  <!-- Scanlines overlay -->
  <rect width="900" height="270" y="30" fill="url(#sl)"/>

  <!-- CRT vignette -->
  <rect width="900" height="300" fill="url(#vig)"/>

  <!-- ===== TITLE BAR ===== -->
  <rect width="900" height="30" fill="#161616"/>
  <line x1="0" y1="30" x2="900" y2="30" stroke="#2d2d2d" stroke-width="1"/>
  <!-- Traffic lights -->
  <circle cx="18" cy="15" r="5.5" fill="#FF5F57"/>
  <circle cx="37" cy="15" r="5.5" fill="#FFBD2E"/>
  <circle cx="56" cy="15" r="5.5" fill="#28C940"/>
  <!-- Window title -->
  <text x="450" y="20" font-family="Courier New, monospace" font-size="11.5" fill="#555555" text-anchor="middle" letter-spacing="0.5">bash — cdryzun@terminal — 120×24</text>

  <!-- ===== TERMINAL CONTENT ===== -->

  <!-- Prompt line 1 -->
  <text y="58" font-family="Courier New, monospace" font-size="12">
    <tspan x="30" fill="#00ff41">user@cdryzun</tspan><tspan fill="#555555">:</tspan><tspan fill="#4a9eff">~</tspan><tspan fill="#555555">$ </tspan><tspan fill="#e0e0e0">cat /proc/engineer</tspan>
  </text>

  <!-- NAME + HANDLE row -->
  <text x="30"  y="82" font-family="Courier New, monospace" font-size="12" fill="#00bfff">NAME</text>
  <text x="158" y="82" font-family="Courier New, monospace" font-size="12" fill="#cccccc">John</text>
  <text x="510" y="82" font-family="Courier New, monospace" font-size="12" fill="#00bfff">HANDLE</text>
  <text x="583" y="82" font-family="Courier New, monospace" font-size="12" fill="#00ff41">@cdryzun</text>

  <!-- LOCATION + STATUS row -->
  <text x="30"  y="98" font-family="Courier New, monospace" font-size="12" fill="#00bfff">LOCATION</text>
  <text x="158" y="98" font-family="Courier New, monospace" font-size="12" fill="#cccccc">Shenzhen, China</text>
  <text x="510" y="98" font-family="Courier New, monospace" font-size="12" fill="#00bfff">STATUS</text>
  <circle cx="586" cy="94" r="4" fill="#28C940"/>
  <text x="596" y="98" font-family="Courier New, monospace" font-size="12" fill="#28C940">online</text>

  <!-- ROLE row -->
  <text x="30"  y="114" font-family="Courier New, monospace" font-size="12" fill="#00bfff">ROLE</text>
  <text x="158" y="114" font-family="Courier New, monospace" font-size="12" fill="#cccccc">SRE · DevOps · AI Infrastructure Engineer</text>

  <!-- Divider 1 -->
  <line x1="30" y1="126" x2="870" y2="126" stroke="#2a2a2a" stroke-width="1"/>

  <!-- CONTAINER -->
  <text x="30"  y="144" font-family="Courier New, monospace" font-size="12" fill="#00bfff">CONTAINER</text>
  <text x="158" y="144" font-family="Courier New, monospace" font-size="12" fill="#aaaaaa">Kubernetes · Docker · Helm · ArgoCD</text>

  <!-- IaC -->
  <text x="30"  y="160" font-family="Courier New, monospace" font-size="12" fill="#00bfff">IaC</text>
  <text x="158" y="160" font-family="Courier New, monospace" font-size="12" fill="#aaaaaa">Terraform · Ansible · GitLab CI · Jenkins</text>

  <!-- OBSERVE -->
  <text x="30"  y="176" font-family="Courier New, monospace" font-size="12" fill="#00bfff">OBSERVE</text>
  <text x="158" y="176" font-family="Courier New, monospace" font-size="12" fill="#aaaaaa">Prometheus · Grafana · VictoriaMetrics · ELK</text>

  <!-- AI STACK -->
  <text x="30"  y="192" font-family="Courier New, monospace" font-size="12" fill="#00bfff">AI STACK</text>
  <text x="158" y="192" font-family="Courier New, monospace" font-size="12" fill="#aaaaaa">Django · Python · LLM-Ops · RAG · Qdrant</text>

  <!-- LANGUAGES -->
  <text x="30"  y="208" font-family="Courier New, monospace" font-size="12" fill="#00bfff">LANGUAGES</text>
  <text x="158" y="208" font-family="Courier New, monospace" font-size="12" fill="#aaaaaa">Go · Python · Bash · TypeScript · Rust</text>

  <!-- Divider 2 -->
  <line x1="30" y1="220" x2="870" y2="220" stroke="#2a2a2a" stroke-width="1"/>

  <!-- FOCUS -->
  <text x="30"  y="238" font-family="Courier New, monospace" font-size="12" fill="#00bfff">FOCUS</text>
  <text x="158" y="238" font-family="Courier New, monospace" font-size="12" fill="#cccccc">Building reliable AI infrastructure at scale</text>

  <!-- UPTIME -->
  <text x="30"  y="254" font-family="Courier New, monospace" font-size="12" fill="#00bfff">UPTIME</text>
  <text x="158" y="254" font-family="Courier New, monospace" font-size="12" fill="#cccccc">99.99% SLA · Zero-downtime deployments</text>

  <!-- Divider 3 -->
  <line x1="30" y1="265" x2="870" y2="265" stroke="#2a2a2a" stroke-width="1"/>

  <!-- Final prompt with blinking cursor -->
  <text y="283" font-family="Courier New, monospace" font-size="12">
    <tspan x="30" fill="#00ff41">user@cdryzun</tspan><tspan fill="#555555">:</tspan><tspan fill="#4a9eff">~</tspan><tspan fill="#555555">$ </tspan>
  </text>
  <!-- Cursor block -->
  <rect x="152" y="272" width="8" height="13" fill="#e0e0e0" opacity="0.88"/>
</svg>
